# xmcd CD database file
#
# Track frame offsets:
#	150
#	21571
#	45630
#	65990
#	80251
#	106296
#	129956
#	149313
#	176317
#	194827
#	208370
#	225734
#	243646
#	261375
#	295298
#
# Disc length: 4156 seconds
#
# Revision: 0
# Processed by: cddbd v1.5.1PL0 Copyright (c) Steve Scherf et al.
# Submitted via: CDex 1.51
#
DISCID=ee103a0f
DTITLE=Galen Marten - Pictures On The Wall
DYEAR=2003
DGENRE=New Age
TTITLE0=The Moment
TTITLE1=Somebody
TTITLE2=Ready To Burn
TTITLE3=Alien
TTITLE4=Red Rain
TTITLE5=Lies
TTITLE6=Religion Man
TTITLE7=Clear
TTITLE8=Pictures On The Wall
TTITLE9=Modern Day Saint
TTITLE10=First Time
TTITLE11=Music Stops
TTITLE12=What I Needed
TTITLE13=The Call
TTITLE14=Untitled Hidden Track
EXTD=YEAR: 2003
EXTT0=
EXTT1=
EXTT2=
EXTT3=
EXTT4=
EXTT5=
EXTT6=
EXTT7=
EXTT8=
EXTT9=
EXTT10=
EXTT11=
EXTT12=
EXTT13=
EXTT14=
PLAYORDER=
